<mxfile host="app.diagrams.net" agent="Mozilla/5.0 (Windows NT 10.0; Win64; x64) AppleWebKit/537.36 (KHTML, like Gecko) Chrome/133.0.0.0 Safari/537.36" version="26.0.16">
  <diagram name="페이지-1" id="oIAFkgDg15FpeaTYZvbt">
    <mxGraphModel dx="2206" dy="1200" grid="1" gridSize="10" guides="1" tooltips="1" connect="1" arrows="1" fold="1" page="1" pageScale="1" pageWidth="827" pageHeight="1169" background="#ffffff" math="0" shadow="0">
      <root>
        <mxCell id="0" />
        <mxCell id="1" parent="0" />
        <mxCell id="e-qhSPak_3QaYVxvlL0b-8" style="edgeStyle=orthogonalEdgeStyle;rounded=0;orthogonalLoop=1;jettySize=auto;html=1;exitX=1;exitY=0.5;exitDx=0;exitDy=0;exitPerimeter=0;" edge="1" parent="1" source="e-qhSPak_3QaYVxvlL0b-5" target="e-qhSPak_3QaYVxvlL0b-6">
          <mxGeometry relative="1" as="geometry" />
        </mxCell>
        <mxCell id="e-qhSPak_3QaYVxvlL0b-21" style="edgeStyle=orthogonalEdgeStyle;rounded=0;orthogonalLoop=1;jettySize=auto;html=1;" edge="1" parent="1" source="e-qhSPak_3QaYVxvlL0b-5" target="e-qhSPak_3QaYVxvlL0b-18">
          <mxGeometry relative="1" as="geometry" />
        </mxCell>
        <mxCell id="e-qhSPak_3QaYVxvlL0b-5" value="age &amp;gt;=8" style="strokeWidth=2;html=1;shape=mxgraph.flowchart.decision;whiteSpace=wrap;" vertex="1" parent="1">
          <mxGeometry x="180" y="180" width="100" height="100" as="geometry" />
        </mxCell>
        <mxCell id="e-qhSPak_3QaYVxvlL0b-22" style="edgeStyle=orthogonalEdgeStyle;rounded=0;orthogonalLoop=1;jettySize=auto;html=1;" edge="1" parent="1" source="e-qhSPak_3QaYVxvlL0b-6" target="e-qhSPak_3QaYVxvlL0b-18">
          <mxGeometry relative="1" as="geometry">
            <Array as="points">
              <mxPoint x="400" y="340" />
            </Array>
          </mxGeometry>
        </mxCell>
        <mxCell id="e-qhSPak_3QaYVxvlL0b-6" value="&quot;학교에 다닙니다&quot;" style="strokeWidth=2;html=1;shape=mxgraph.flowchart.document2;whiteSpace=wrap;size=0.25;" vertex="1" parent="1">
          <mxGeometry x="340" y="200" width="120" height="60" as="geometry" />
        </mxCell>
        <mxCell id="e-qhSPak_3QaYVxvlL0b-20" style="edgeStyle=orthogonalEdgeStyle;rounded=0;orthogonalLoop=1;jettySize=auto;html=1;exitX=0.5;exitY=1;exitDx=0;exitDy=0;" edge="1" parent="1" source="e-qhSPak_3QaYVxvlL0b-7" target="e-qhSPak_3QaYVxvlL0b-5">
          <mxGeometry relative="1" as="geometry" />
        </mxCell>
        <mxCell id="e-qhSPak_3QaYVxvlL0b-7" value="age 입력" style="shape=parallelogram;html=1;strokeWidth=2;perimeter=parallelogramPerimeter;whiteSpace=wrap;rounded=1;arcSize=12;size=0.23;" vertex="1" parent="1">
          <mxGeometry x="180" y="100" width="100" height="60" as="geometry" />
        </mxCell>
        <mxCell id="e-qhSPak_3QaYVxvlL0b-9" value="학교에 다니지 않습니다" style="strokeWidth=2;html=1;shape=mxgraph.flowchart.document2;whiteSpace=wrap;size=0.25;" vertex="1" parent="1">
          <mxGeometry x="320" y="420" width="140" height="70" as="geometry" />
        </mxCell>
        <mxCell id="e-qhSPak_3QaYVxvlL0b-12" value="YES" style="text;html=1;align=center;verticalAlign=middle;resizable=0;points=[];autosize=1;strokeColor=none;fillColor=none;" vertex="1" parent="1">
          <mxGeometry x="270" y="200" width="50" height="30" as="geometry" />
        </mxCell>
        <mxCell id="e-qhSPak_3QaYVxvlL0b-15" value="NO" style="text;html=1;align=center;verticalAlign=middle;resizable=0;points=[];autosize=1;strokeColor=none;fillColor=none;" vertex="1" parent="1">
          <mxGeometry x="234" y="280" width="40" height="30" as="geometry" />
        </mxCell>
        <mxCell id="e-qhSPak_3QaYVxvlL0b-19" style="edgeStyle=orthogonalEdgeStyle;rounded=0;orthogonalLoop=1;jettySize=auto;html=1;exitX=0.5;exitY=1;exitDx=0;exitDy=0;exitPerimeter=0;" edge="1" parent="1" source="e-qhSPak_3QaYVxvlL0b-16" target="e-qhSPak_3QaYVxvlL0b-7">
          <mxGeometry relative="1" as="geometry" />
        </mxCell>
        <mxCell id="e-qhSPak_3QaYVxvlL0b-16" value="시작" style="strokeWidth=2;html=1;shape=mxgraph.flowchart.terminator;whiteSpace=wrap;" vertex="1" parent="1">
          <mxGeometry x="180" y="20" width="100" height="60" as="geometry" />
        </mxCell>
        <mxCell id="e-qhSPak_3QaYVxvlL0b-17" value="끝" style="strokeWidth=2;html=1;shape=mxgraph.flowchart.terminator;whiteSpace=wrap;" vertex="1" parent="1">
          <mxGeometry x="180" y="620" width="100" height="60" as="geometry" />
        </mxCell>
        <mxCell id="e-qhSPak_3QaYVxvlL0b-24" style="edgeStyle=orthogonalEdgeStyle;rounded=0;orthogonalLoop=1;jettySize=auto;html=1;" edge="1" parent="1" source="e-qhSPak_3QaYVxvlL0b-18" target="e-qhSPak_3QaYVxvlL0b-23">
          <mxGeometry relative="1" as="geometry" />
        </mxCell>
        <mxCell id="e-qhSPak_3QaYVxvlL0b-18" value="&quot;IF 코드 블럭 종료&quot;" style="shape=parallelogram;html=1;strokeWidth=2;perimeter=parallelogramPerimeter;whiteSpace=wrap;rounded=1;arcSize=12;size=0.23;" vertex="1" parent="1">
          <mxGeometry x="150" y="310" width="160" height="60" as="geometry" />
        </mxCell>
        <mxCell id="e-qhSPak_3QaYVxvlL0b-25" style="edgeStyle=orthogonalEdgeStyle;rounded=0;orthogonalLoop=1;jettySize=auto;html=1;" edge="1" parent="1" source="e-qhSPak_3QaYVxvlL0b-23" target="e-qhSPak_3QaYVxvlL0b-9">
          <mxGeometry relative="1" as="geometry" />
        </mxCell>
        <mxCell id="e-qhSPak_3QaYVxvlL0b-28" style="edgeStyle=orthogonalEdgeStyle;rounded=0;orthogonalLoop=1;jettySize=auto;html=1;" edge="1" parent="1" source="e-qhSPak_3QaYVxvlL0b-23" target="e-qhSPak_3QaYVxvlL0b-27">
          <mxGeometry relative="1" as="geometry" />
        </mxCell>
        <mxCell id="e-qhSPak_3QaYVxvlL0b-23" value="age &amp;gt;=8" style="strokeWidth=2;html=1;shape=mxgraph.flowchart.decision;whiteSpace=wrap;" vertex="1" parent="1">
          <mxGeometry x="180" y="405" width="100" height="100" as="geometry" />
        </mxCell>
        <mxCell id="e-qhSPak_3QaYVxvlL0b-26" value="YES" style="text;html=1;align=center;verticalAlign=middle;resizable=0;points=[];autosize=1;strokeColor=none;fillColor=none;" vertex="1" parent="1">
          <mxGeometry x="270" y="430" width="50" height="30" as="geometry" />
        </mxCell>
        <mxCell id="e-qhSPak_3QaYVxvlL0b-29" style="edgeStyle=orthogonalEdgeStyle;rounded=0;orthogonalLoop=1;jettySize=auto;html=1;" edge="1" parent="1" source="e-qhSPak_3QaYVxvlL0b-27" target="e-qhSPak_3QaYVxvlL0b-17">
          <mxGeometry relative="1" as="geometry" />
        </mxCell>
        <mxCell id="e-qhSPak_3QaYVxvlL0b-27" value="&quot;프로그램 종료&quot;" style="shape=parallelogram;html=1;strokeWidth=2;perimeter=parallelogramPerimeter;whiteSpace=wrap;rounded=1;arcSize=12;size=0.23;" vertex="1" parent="1">
          <mxGeometry x="150" y="530" width="160" height="60" as="geometry" />
        </mxCell>
        <mxCell id="e-qhSPak_3QaYVxvlL0b-37" style="edgeStyle=orthogonalEdgeStyle;rounded=0;orthogonalLoop=1;jettySize=auto;html=1;exitX=1;exitY=0.5;exitDx=0;exitDy=0;exitPerimeter=0;" edge="1" parent="1" source="e-qhSPak_3QaYVxvlL0b-39" target="e-qhSPak_3QaYVxvlL0b-41">
          <mxGeometry relative="1" as="geometry" />
        </mxCell>
        <mxCell id="e-qhSPak_3QaYVxvlL0b-60" style="edgeStyle=orthogonalEdgeStyle;rounded=0;orthogonalLoop=1;jettySize=auto;html=1;" edge="1" parent="1" source="e-qhSPak_3QaYVxvlL0b-39" target="e-qhSPak_3QaYVxvlL0b-44">
          <mxGeometry relative="1" as="geometry" />
        </mxCell>
        <mxCell id="e-qhSPak_3QaYVxvlL0b-39" value="age &amp;gt;=8" style="strokeWidth=2;html=1;shape=mxgraph.flowchart.decision;whiteSpace=wrap;" vertex="1" parent="1">
          <mxGeometry x="740" y="180" width="100" height="100" as="geometry" />
        </mxCell>
        <mxCell id="e-qhSPak_3QaYVxvlL0b-62" style="edgeStyle=orthogonalEdgeStyle;rounded=0;orthogonalLoop=1;jettySize=auto;html=1;" edge="1" parent="1" source="e-qhSPak_3QaYVxvlL0b-41" target="e-qhSPak_3QaYVxvlL0b-57">
          <mxGeometry relative="1" as="geometry">
            <Array as="points">
              <mxPoint x="960" y="560" />
            </Array>
          </mxGeometry>
        </mxCell>
        <mxCell id="e-qhSPak_3QaYVxvlL0b-41" value="&quot;학교에 다닙니다&quot;" style="strokeWidth=2;html=1;shape=mxgraph.flowchart.document2;whiteSpace=wrap;size=0.25;" vertex="1" parent="1">
          <mxGeometry x="900" y="200" width="120" height="60" as="geometry" />
        </mxCell>
        <mxCell id="e-qhSPak_3QaYVxvlL0b-42" style="edgeStyle=orthogonalEdgeStyle;rounded=0;orthogonalLoop=1;jettySize=auto;html=1;exitX=0.5;exitY=1;exitDx=0;exitDy=0;" edge="1" parent="1" source="e-qhSPak_3QaYVxvlL0b-43" target="e-qhSPak_3QaYVxvlL0b-39">
          <mxGeometry relative="1" as="geometry" />
        </mxCell>
        <mxCell id="e-qhSPak_3QaYVxvlL0b-43" value="age 입력" style="shape=parallelogram;html=1;strokeWidth=2;perimeter=parallelogramPerimeter;whiteSpace=wrap;rounded=1;arcSize=12;size=0.23;" vertex="1" parent="1">
          <mxGeometry x="740" y="100" width="100" height="60" as="geometry" />
        </mxCell>
        <mxCell id="e-qhSPak_3QaYVxvlL0b-61" style="edgeStyle=orthogonalEdgeStyle;rounded=0;orthogonalLoop=1;jettySize=auto;html=1;" edge="1" parent="1" source="e-qhSPak_3QaYVxvlL0b-44" target="e-qhSPak_3QaYVxvlL0b-57">
          <mxGeometry relative="1" as="geometry" />
        </mxCell>
        <mxCell id="e-qhSPak_3QaYVxvlL0b-44" value="학교에 다니지 않습니다" style="strokeWidth=2;html=1;shape=mxgraph.flowchart.document2;whiteSpace=wrap;size=0.25;" vertex="1" parent="1">
          <mxGeometry x="720" y="330" width="140" height="70" as="geometry" />
        </mxCell>
        <mxCell id="e-qhSPak_3QaYVxvlL0b-45" value="YES" style="text;html=1;align=center;verticalAlign=middle;resizable=0;points=[];autosize=1;strokeColor=none;fillColor=none;" vertex="1" parent="1">
          <mxGeometry x="830" y="200" width="50" height="30" as="geometry" />
        </mxCell>
        <mxCell id="e-qhSPak_3QaYVxvlL0b-46" value="NO" style="text;html=1;align=center;verticalAlign=middle;resizable=0;points=[];autosize=1;strokeColor=none;fillColor=none;" vertex="1" parent="1">
          <mxGeometry x="794" y="280" width="40" height="30" as="geometry" />
        </mxCell>
        <mxCell id="e-qhSPak_3QaYVxvlL0b-47" style="edgeStyle=orthogonalEdgeStyle;rounded=0;orthogonalLoop=1;jettySize=auto;html=1;exitX=0.5;exitY=1;exitDx=0;exitDy=0;exitPerimeter=0;" edge="1" parent="1" source="e-qhSPak_3QaYVxvlL0b-48" target="e-qhSPak_3QaYVxvlL0b-43">
          <mxGeometry relative="1" as="geometry" />
        </mxCell>
        <mxCell id="e-qhSPak_3QaYVxvlL0b-48" value="시작" style="strokeWidth=2;html=1;shape=mxgraph.flowchart.terminator;whiteSpace=wrap;" vertex="1" parent="1">
          <mxGeometry x="740" y="20" width="100" height="60" as="geometry" />
        </mxCell>
        <mxCell id="e-qhSPak_3QaYVxvlL0b-49" value="끝" style="strokeWidth=2;html=1;shape=mxgraph.flowchart.terminator;whiteSpace=wrap;" vertex="1" parent="1">
          <mxGeometry x="740" y="620" width="100" height="60" as="geometry" />
        </mxCell>
        <mxCell id="e-qhSPak_3QaYVxvlL0b-56" style="edgeStyle=orthogonalEdgeStyle;rounded=0;orthogonalLoop=1;jettySize=auto;html=1;" edge="1" parent="1" source="e-qhSPak_3QaYVxvlL0b-57" target="e-qhSPak_3QaYVxvlL0b-49">
          <mxGeometry relative="1" as="geometry" />
        </mxCell>
        <mxCell id="e-qhSPak_3QaYVxvlL0b-57" value="&quot;프로그램 종료&quot;" style="shape=parallelogram;html=1;strokeWidth=2;perimeter=parallelogramPerimeter;whiteSpace=wrap;rounded=1;arcSize=12;size=0.23;" vertex="1" parent="1">
          <mxGeometry x="710" y="530" width="160" height="60" as="geometry" />
        </mxCell>
        <mxCell id="e-qhSPak_3QaYVxvlL0b-63" value="1. IF" style="shape=umlFrame;whiteSpace=wrap;html=1;pointerEvents=0;" vertex="1" parent="1">
          <mxGeometry width="510" height="710" as="geometry" />
        </mxCell>
        <mxCell id="e-qhSPak_3QaYVxvlL0b-64" value="2. IF-ELSE" style="shape=umlFrame;whiteSpace=wrap;html=1;pointerEvents=0;width=83;height=30;" vertex="1" parent="1">
          <mxGeometry x="560" width="510" height="710" as="geometry" />
        </mxCell>
        <mxCell id="e-qhSPak_3QaYVxvlL0b-65" value="2. IF-ELSE" style="shape=umlFrame;whiteSpace=wrap;html=1;pointerEvents=0;width=83;height=30;" vertex="1" parent="1">
          <mxGeometry x="1120" width="600" height="710" as="geometry" />
        </mxCell>
        <mxCell id="e-qhSPak_3QaYVxvlL0b-76" style="edgeStyle=orthogonalEdgeStyle;rounded=0;orthogonalLoop=1;jettySize=auto;html=1;" edge="1" parent="1" source="e-qhSPak_3QaYVxvlL0b-66" target="e-qhSPak_3QaYVxvlL0b-68">
          <mxGeometry relative="1" as="geometry" />
        </mxCell>
        <mxCell id="e-qhSPak_3QaYVxvlL0b-66" value="시작" style="strokeWidth=2;html=1;shape=mxgraph.flowchart.terminator;whiteSpace=wrap;" vertex="1" parent="1">
          <mxGeometry x="1325" y="20" width="100" height="60" as="geometry" />
        </mxCell>
        <mxCell id="e-qhSPak_3QaYVxvlL0b-67" value="끝" style="strokeWidth=2;html=1;shape=mxgraph.flowchart.terminator;whiteSpace=wrap;" vertex="1" parent="1">
          <mxGeometry x="1325" y="620" width="100" height="60" as="geometry" />
        </mxCell>
        <mxCell id="e-qhSPak_3QaYVxvlL0b-78" style="edgeStyle=orthogonalEdgeStyle;rounded=0;orthogonalLoop=1;jettySize=auto;html=1;" edge="1" parent="1" source="e-qhSPak_3QaYVxvlL0b-68" target="e-qhSPak_3QaYVxvlL0b-69">
          <mxGeometry relative="1" as="geometry" />
        </mxCell>
        <mxCell id="e-qhSPak_3QaYVxvlL0b-68" value="정수 입력" style="shape=parallelogram;html=1;strokeWidth=2;perimeter=parallelogramPerimeter;whiteSpace=wrap;rounded=1;arcSize=12;size=0.23;" vertex="1" parent="1">
          <mxGeometry x="1325" y="100" width="100" height="60" as="geometry" />
        </mxCell>
        <mxCell id="e-qhSPak_3QaYVxvlL0b-79" style="edgeStyle=orthogonalEdgeStyle;rounded=0;orthogonalLoop=1;jettySize=auto;html=1;" edge="1" parent="1" source="e-qhSPak_3QaYVxvlL0b-69" target="e-qhSPak_3QaYVxvlL0b-72">
          <mxGeometry relative="1" as="geometry" />
        </mxCell>
        <mxCell id="e-qhSPak_3QaYVxvlL0b-82" style="edgeStyle=orthogonalEdgeStyle;rounded=0;orthogonalLoop=1;jettySize=auto;html=1;" edge="1" parent="1" source="e-qhSPak_3QaYVxvlL0b-69" target="e-qhSPak_3QaYVxvlL0b-71">
          <mxGeometry relative="1" as="geometry" />
        </mxCell>
        <mxCell id="e-qhSPak_3QaYVxvlL0b-69" value="5의 배수이면서&lt;div&gt;3의 배수&lt;/div&gt;" style="strokeWidth=2;html=1;shape=mxgraph.flowchart.decision;whiteSpace=wrap;" vertex="1" parent="1">
          <mxGeometry x="1305" y="180" width="140" height="100" as="geometry" />
        </mxCell>
        <mxCell id="e-qhSPak_3QaYVxvlL0b-81" style="edgeStyle=orthogonalEdgeStyle;rounded=0;orthogonalLoop=1;jettySize=auto;html=1;" edge="1" parent="1" source="e-qhSPak_3QaYVxvlL0b-70" target="e-qhSPak_3QaYVxvlL0b-67">
          <mxGeometry relative="1" as="geometry" />
        </mxCell>
        <mxCell id="e-qhSPak_3QaYVxvlL0b-70" value="&quot;프로그램 종료&quot;" style="shape=parallelogram;html=1;strokeWidth=2;perimeter=parallelogramPerimeter;whiteSpace=wrap;rounded=1;arcSize=12;size=0.23;" vertex="1" parent="1">
          <mxGeometry x="1295" y="525" width="160" height="60" as="geometry" />
        </mxCell>
        <mxCell id="e-qhSPak_3QaYVxvlL0b-84" style="edgeStyle=orthogonalEdgeStyle;rounded=0;orthogonalLoop=1;jettySize=auto;html=1;" edge="1" parent="1" source="e-qhSPak_3QaYVxvlL0b-71" target="e-qhSPak_3QaYVxvlL0b-70">
          <mxGeometry relative="1" as="geometry">
            <Array as="points">
              <mxPoint x="1650" y="230" />
              <mxPoint x="1650" y="555" />
            </Array>
          </mxGeometry>
        </mxCell>
        <mxCell id="e-qhSPak_3QaYVxvlL0b-71" value="&quot;5의 배수이면서,&lt;div&gt;&amp;nbsp;3의 배수입니다.&quot;&lt;/div&gt;" style="strokeWidth=2;html=1;shape=mxgraph.flowchart.document2;whiteSpace=wrap;size=0.25;" vertex="1" parent="1">
          <mxGeometry x="1480" y="200" width="120" height="60" as="geometry" />
        </mxCell>
        <mxCell id="e-qhSPak_3QaYVxvlL0b-80" style="edgeStyle=orthogonalEdgeStyle;rounded=0;orthogonalLoop=1;jettySize=auto;html=1;" edge="1" parent="1" source="e-qhSPak_3QaYVxvlL0b-72" target="e-qhSPak_3QaYVxvlL0b-70">
          <mxGeometry relative="1" as="geometry" />
        </mxCell>
        <mxCell id="e-qhSPak_3QaYVxvlL0b-83" style="edgeStyle=orthogonalEdgeStyle;rounded=0;orthogonalLoop=1;jettySize=auto;html=1;" edge="1" parent="1" source="e-qhSPak_3QaYVxvlL0b-72" target="e-qhSPak_3QaYVxvlL0b-73">
          <mxGeometry relative="1" as="geometry" />
        </mxCell>
        <mxCell id="e-qhSPak_3QaYVxvlL0b-72" value="3의 배수" style="strokeWidth=2;html=1;shape=mxgraph.flowchart.decision;whiteSpace=wrap;" vertex="1" parent="1">
          <mxGeometry x="1325" y="325" width="100" height="100" as="geometry" />
        </mxCell>
        <mxCell id="e-qhSPak_3QaYVxvlL0b-89" style="edgeStyle=orthogonalEdgeStyle;rounded=0;orthogonalLoop=1;jettySize=auto;html=1;" edge="1" parent="1" source="e-qhSPak_3QaYVxvlL0b-73" target="e-qhSPak_3QaYVxvlL0b-70">
          <mxGeometry relative="1" as="geometry">
            <Array as="points">
              <mxPoint x="1650" y="375" />
              <mxPoint x="1650" y="555" />
            </Array>
          </mxGeometry>
        </mxCell>
        <mxCell id="e-qhSPak_3QaYVxvlL0b-73" value="&quot;&lt;span style=&quot;background-color: transparent; color: light-dark(rgb(0, 0, 0), rgb(255, 255, 255));&quot;&gt;3의 배수입니다.&quot;&lt;/span&gt;" style="strokeWidth=2;html=1;shape=mxgraph.flowchart.document2;whiteSpace=wrap;size=0.25;" vertex="1" parent="1">
          <mxGeometry x="1480" y="345" width="120" height="60" as="geometry" />
        </mxCell>
        <mxCell id="e-qhSPak_3QaYVxvlL0b-86" value="YES" style="text;html=1;align=center;verticalAlign=middle;resizable=0;points=[];autosize=1;strokeColor=none;fillColor=none;" vertex="1" parent="1">
          <mxGeometry x="1430" y="200" width="50" height="30" as="geometry" />
        </mxCell>
        <mxCell id="e-qhSPak_3QaYVxvlL0b-87" value="YES" style="text;html=1;align=center;verticalAlign=middle;resizable=0;points=[];autosize=1;strokeColor=none;fillColor=none;" vertex="1" parent="1">
          <mxGeometry x="1420" y="350" width="50" height="30" as="geometry" />
        </mxCell>
        <mxCell id="e-qhSPak_3QaYVxvlL0b-88" value="NO" style="text;html=1;align=center;verticalAlign=middle;resizable=0;points=[];autosize=1;strokeColor=none;fillColor=none;" vertex="1" parent="1">
          <mxGeometry x="1370" y="420" width="40" height="30" as="geometry" />
        </mxCell>
        <mxCell id="e-qhSPak_3QaYVxvlL0b-90" value="NO" style="text;html=1;align=center;verticalAlign=middle;resizable=0;points=[];autosize=1;strokeColor=none;fillColor=none;" vertex="1" parent="1">
          <mxGeometry x="1370" y="270" width="40" height="30" as="geometry" />
        </mxCell>
        <mxCell id="e-qhSPak_3QaYVxvlL0b-92" value="문제 4" style="shape=umlFrame;whiteSpace=wrap;html=1;pointerEvents=0;width=83;height=30;" vertex="1" parent="1">
          <mxGeometry x="1790" y="810" width="600" height="600" as="geometry" />
        </mxCell>
        <mxCell id="e-qhSPak_3QaYVxvlL0b-93" style="edgeStyle=orthogonalEdgeStyle;rounded=0;orthogonalLoop=1;jettySize=auto;html=1;" edge="1" parent="1" source="e-qhSPak_3QaYVxvlL0b-94" target="e-qhSPak_3QaYVxvlL0b-97">
          <mxGeometry relative="1" as="geometry" />
        </mxCell>
        <mxCell id="e-qhSPak_3QaYVxvlL0b-94" value="시작" style="strokeWidth=2;html=1;shape=mxgraph.flowchart.terminator;whiteSpace=wrap;" vertex="1" parent="1">
          <mxGeometry x="1995" y="830" width="100" height="60" as="geometry" />
        </mxCell>
        <mxCell id="e-qhSPak_3QaYVxvlL0b-95" value="끝" style="strokeWidth=2;html=1;shape=mxgraph.flowchart.terminator;whiteSpace=wrap;" vertex="1" parent="1">
          <mxGeometry x="1995" y="1315" width="100" height="60" as="geometry" />
        </mxCell>
        <mxCell id="e-qhSPak_3QaYVxvlL0b-117" style="edgeStyle=orthogonalEdgeStyle;rounded=0;orthogonalLoop=1;jettySize=auto;html=1;" edge="1" parent="1" source="e-qhSPak_3QaYVxvlL0b-97" target="e-qhSPak_3QaYVxvlL0b-114">
          <mxGeometry relative="1" as="geometry" />
        </mxCell>
        <mxCell id="e-qhSPak_3QaYVxvlL0b-97" value="n1, n2, n3&lt;br&gt;&lt;div&gt;입력&lt;/div&gt;" style="shape=parallelogram;html=1;strokeWidth=2;perimeter=parallelogramPerimeter;whiteSpace=wrap;rounded=1;arcSize=12;size=0.23;" vertex="1" parent="1">
          <mxGeometry x="1995" y="910" width="100" height="60" as="geometry" />
        </mxCell>
        <mxCell id="e-qhSPak_3QaYVxvlL0b-101" style="edgeStyle=orthogonalEdgeStyle;rounded=0;orthogonalLoop=1;jettySize=auto;html=1;" edge="1" parent="1" source="e-qhSPak_3QaYVxvlL0b-102" target="e-qhSPak_3QaYVxvlL0b-95">
          <mxGeometry relative="1" as="geometry" />
        </mxCell>
        <mxCell id="e-qhSPak_3QaYVxvlL0b-102" value="&quot;프로그램 종료&quot;" style="shape=parallelogram;html=1;strokeWidth=2;perimeter=parallelogramPerimeter;whiteSpace=wrap;rounded=1;arcSize=12;size=0.23;" vertex="1" parent="1">
          <mxGeometry x="1970" y="1220" width="150" height="60" as="geometry" />
        </mxCell>
        <mxCell id="e-qhSPak_3QaYVxvlL0b-103" style="edgeStyle=orthogonalEdgeStyle;rounded=0;orthogonalLoop=1;jettySize=auto;html=1;" edge="1" parent="1" source="e-qhSPak_3QaYVxvlL0b-104" target="e-qhSPak_3QaYVxvlL0b-102">
          <mxGeometry relative="1" as="geometry">
            <Array as="points">
              <mxPoint x="2320" y="1040" />
              <mxPoint x="2320" y="1250" />
            </Array>
          </mxGeometry>
        </mxCell>
        <mxCell id="e-qhSPak_3QaYVxvlL0b-104" value="&quot;sum&quot;" style="strokeWidth=2;html=1;shape=mxgraph.flowchart.document2;whiteSpace=wrap;size=0.25;" vertex="1" parent="1">
          <mxGeometry x="2150" y="1010" width="120" height="60" as="geometry" />
        </mxCell>
        <mxCell id="e-qhSPak_3QaYVxvlL0b-109" value="&quot;avg&quot;" style="strokeWidth=2;html=1;shape=mxgraph.flowchart.document2;whiteSpace=wrap;size=0.25;" vertex="1" parent="1">
          <mxGeometry x="2150" y="1109" width="120" height="60" as="geometry" />
        </mxCell>
        <mxCell id="e-qhSPak_3QaYVxvlL0b-118" style="edgeStyle=orthogonalEdgeStyle;rounded=0;orthogonalLoop=1;jettySize=auto;html=1;" edge="1" parent="1" source="e-qhSPak_3QaYVxvlL0b-114" target="e-qhSPak_3QaYVxvlL0b-115">
          <mxGeometry relative="1" as="geometry" />
        </mxCell>
        <mxCell id="e-qhSPak_3QaYVxvlL0b-119" style="edgeStyle=orthogonalEdgeStyle;rounded=0;orthogonalLoop=1;jettySize=auto;html=1;" edge="1" parent="1" source="e-qhSPak_3QaYVxvlL0b-114" target="e-qhSPak_3QaYVxvlL0b-104">
          <mxGeometry relative="1" as="geometry" />
        </mxCell>
        <mxCell id="e-qhSPak_3QaYVxvlL0b-114" value="sum = n1 + n2 + n3" style="rounded=1;whiteSpace=wrap;html=1;" vertex="1" parent="1">
          <mxGeometry x="1985" y="1010" width="120" height="60" as="geometry" />
        </mxCell>
        <mxCell id="e-qhSPak_3QaYVxvlL0b-120" style="edgeStyle=orthogonalEdgeStyle;rounded=0;orthogonalLoop=1;jettySize=auto;html=1;" edge="1" parent="1" source="e-qhSPak_3QaYVxvlL0b-115" target="e-qhSPak_3QaYVxvlL0b-109">
          <mxGeometry relative="1" as="geometry" />
        </mxCell>
        <mxCell id="e-qhSPak_3QaYVxvlL0b-121" value="" style="edgeStyle=orthogonalEdgeStyle;rounded=0;orthogonalLoop=1;jettySize=auto;html=1;" edge="1" parent="1" source="e-qhSPak_3QaYVxvlL0b-115" target="e-qhSPak_3QaYVxvlL0b-102">
          <mxGeometry relative="1" as="geometry" />
        </mxCell>
        <mxCell id="e-qhSPak_3QaYVxvlL0b-115" value="avg = sum/3" style="rounded=1;whiteSpace=wrap;html=1;" vertex="1" parent="1">
          <mxGeometry x="1985" y="1109" width="120" height="60" as="geometry" />
        </mxCell>
      </root>
    </mxGraphModel>
  </diagram>
</mxfile>
